<?xml version="1.0" standalone="no"?>
<!DOCTYPE svg PUBLIC "-//W3C//DTD SVG 20010904//EN"
 "http://www.w3.org/TR/2001/REC-SVG-20010904/DTD/svg10.dtd">
<svg version="1.0" xmlns="http://www.w3.org/2000/svg"
 width="400.000000pt" height="400.000000pt" viewBox="0 0 400.000000 400.000000"
 preserveAspectRatio="xMidYMid meet">
<metadata>
Created by potrace 1.14, written by Peter Selinger 2001-2017
</metadata>
<g transform="translate(0.000000,400.000000) scale(0.100000,-0.100000)"
fill="#000000" stroke="none">
<path d="M1862 3748 c-307 -25 -610 -166 -827 -383 -111 -112 -185 -214 -259
-362 -143 -283 -185 -599 -121 -905 64 -302 192 -508 785 -1262 107 -136 206
-263 220 -281 64 -84 191 -233 219 -258 57 -50 162 -47 222 5 14 13 70 79 125
148 54 68 106 133 114 143 8 11 20 24 25 31 6 6 66 83 135 171 68 88 128 161
132 163 4 2 8 10 8 17 0 7 4 15 9 17 4 2 40 46 80 98 39 52 74 100 79 105 4 6
19 26 33 45 14 19 57 78 96 130 267 364 352 524 404 765 14 64 19 374 7 435
-18 96 -29 140 -46 195 -58 177 -122 304 -220 435 -62 84 -208 234 -262 270
-19 13 -37 27 -40 30 -11 13 -138 88 -200 118 -221 108 -463 152 -718 130z
m268 -432 c208 -36 376 -122 524 -270 123 -123 220 -296 251 -451 5 -22 10
-47 12 -55 12 -44 10 -253 -3 -324 -17 -95 -79 -254 -127 -328 -116 -177 -278
-311 -457 -377 -298 -110 -602 -78 -860 92 -70 46 -197 165 -246 232 -67 88
-134 250 -159 384 -28 142 -11 352 36 476 97 252 249 420 484 537 69 35 120
54 166 63 13 3 38 8 54 11 82 17 107 20 190 19 50 -1 110 -5 135 -9z"/>
<path d="M1546 3004 c-57 -62 -59 -178 -5 -291 72 -152 136 -279 153 -305 32
-49 121 -68 163 -36 9 7 18 0 33 -24 11 -18 20 -39 20 -46 0 -11 -323 -468
-341 -482 -12 -10 -16 -35 -7 -52 12 -25 93 -78 117 -78 21 0 42 28 92 117 13
23 67 116 119 207 l94 164 16 -26 c9 -15 30 -52 47 -82 71 -131 197 -346 211
-362 8 -10 23 -18 32 -18 28 0 125 74 125 95 1 16 -55 103 -108 170 -4 6 -62
86 -129 180 l-121 170 32 60 c46 85 53 93 92 100 99 17 96 14 263 288 74 121
77 129 59 142 -22 17 -26 12 -142 -157 -70 -103 -111 -141 -111 -106 0 7 23
50 50 96 28 46 50 85 50 87 0 2 13 24 30 48 17 25 30 50 30 56 0 6 5 11 10 11
18 0 10 17 -13 27 -18 9 -25 6 -40 -13 -9 -12 -17 -26 -17 -29 0 -4 -6 -12
-12 -20 -7 -7 -44 -58 -81 -114 -62 -92 -87 -115 -101 -93 -2 4 37 76 89 160
93 151 93 152 72 167 -19 13 -22 13 -31 -3 -5 -9 -12 -19 -15 -22 -4 -3 -33
-45 -66 -95 -33 -49 -63 -92 -66 -95 -3 -3 -22 -33 -43 -67 -42 -68 -52 -117
-38 -180 9 -39 7 -46 -24 -92 -19 -28 -38 -51 -42 -51 -7 1 -74 87 -81 105 -2
5 -17 26 -32 46 -16 20 -29 39 -29 43 0 3 -35 58 -78 123 -43 65 -104 160
-136 211 -32 50 -60 92 -62 92 -2 0 -14 -12 -28 -26z"/>
</g>
</svg>
